<svg width="18" height="18" viewBox="0 0 18 18" fill="none" xmlns="http://www.w3.org/2000/svg">
  <path d="M8.7 8.25C8.7 7.836 8.364 7.5 7.95 7.5C6.70875 7.5 4.24125 7.5 3 7.5C2.586 7.5 2.25 7.836 2.25 8.25V15C2.25 15.414 2.586 15.75 3 15.75H7.95C8.364 15.75 8.7 15.414 8.7 15C8.7 13.431 8.7 9.819 8.7 8.25ZM15.75 12.75C15.75 12.336 15.414 12 15 12H10.5C10.0965 12 9.75 12.3577 9.75 12.75V15C9.75 15.414 10.086 15.75 10.5 15.75H15C15.414 15.75 15.75 15.414 15.75 15V12.75ZM15.75 3C15.75 2.586 15.414 2.25 15 2.25C13.8472 2.25 11.6528 2.25 10.5 2.25C10.086 2.25 9.75 2.586 9.75 3V10.2C9.75 10.614 10.086 10.95 10.5 10.95H15C15.414 10.95 15.75 10.614 15.75 10.2C15.75 8.5545 15.75 4.6455 15.75 3ZM8.7 3C8.7 2.586 8.364 2.25 7.95 2.25C6.70875 2.25 4.24125 2.25 3 2.25C2.586 2.25 2.25 2.586 2.25 3V5.7C2.25 6.114 2.586 6.45 3 6.45H7.95C8.364 6.45 8.7 6.114 8.7 5.7C8.7 4.93725 8.7 3.76275 8.7 3Z" />
</svg>
